<?xml version="1.0" encoding="UTF-8" standalone="no"?>
<svg width="306px" height="28px" viewBox="0 0 306 28" version="1.1" xmlns="http://www.w3.org/2000/svg" xmlns:xlink="http://www.w3.org/1999/xlink">
    <!-- Generator: sketchtool 41.2 (35397) - http://www.bohemiancoding.com/sketch -->
    <title>83412343-A52C-452F-982A-5999D75FBA2A</title>
    <desc>Created with sketchtool.</desc>
    <defs></defs>
    <g id="New-CX-Personalization-Site" stroke="none" stroke-width="1" fill="none" fill-rule="evenodd">
        <g id="CXP-LandingPage_NEW" transform="translate(-50.000000, -36.000000)">
            <g id="Hero" transform="translate(-4.000000, -193.000000)">
                <g id="customer-timeline-logo" transform="translate(54.101680, 229.353120)">
                    <g id="Group-31">
                        <path d="M46.7953889,15.43652 L46.7953889,15.3748123 C46.7953889,10.9627167 50.3139105,7.13565688 54.8185676,7.13565688 C57.7805339,7.13565688 59.6305762,8.49441145 61.1115593,10.0371022 L60.0316758,11.1478396 C58.6752946,9.7594179 57.1326038,8.55611909 54.7865271,8.55611909 C51.2086712,8.55611909 48.4306411,11.5489392 48.4306411,15.3131047 L48.4306411,15.3748123 C48.4306411,19.1698317 51.3012326,22.1935056 54.9111291,22.1935056 C57.1326038,22.1935056 58.8604175,21.0519144 60.1871315,19.5709313 L61.2361613,20.4965457 C59.6305762,22.3169209 57.7188263,23.6127811 54.8185676,23.6127811 C50.28187,23.6127811 46.7953889,19.8486156 46.7953889,15.43652 L46.7953889,15.43652 Z" id="Fill-1" fill="#FEFEFE"></path>
                        <path d="M64.8760808,17.1337172 L64.8760808,7.50732669 L66.3867311,7.50732669 L66.3867311,16.8560328 C66.3867311,20.0956835 68.2082929,22.2245968 71.3862359,22.2245968 C74.4716175,22.2245968 76.8473613,19.8797068 76.8473613,16.6092023 L76.8473613,7.50732669 L78.3591983,7.50732669 L78.3591983,23.2427727 L76.8473613,23.2427727 L76.8473613,20.3116602 C75.7983316,22.1628891 74.0408508,23.6130185 71.1702592,23.6130185 C67.190117,23.6130185 64.8760808,20.8978827 64.8760808,17.1337172" id="Fill-3" fill="#FEFEFE"></path>
                        <path d="M82.4319019,21.2680098 L83.3266626,20.064711 C85.0544763,21.3914251 86.9662262,22.1319166 88.9729109,22.1319166 C91.1018241,22.1319166 92.7679302,20.9594716 92.7679302,19.1390965 L92.7679302,19.0773889 C92.7679302,17.22616 90.793286,16.547376 88.6026651,15.9302997 C86.0417984,15.1898081 83.2020606,14.4184627 83.2020606,11.6107655 L83.2020606,11.5490579 C83.2020606,9.01904499 85.3309739,7.19866987 88.3866884,7.19866987 C90.2687711,7.19866987 92.3964977,7.87626712 93.971229,8.92648354 L93.1690298,10.19149 C91.7189005,9.2350217 89.9910868,8.6167587 88.3249807,8.6167587 C86.1652136,8.6167587 84.7459381,9.79039038 84.7459381,11.363935 L84.7459381,11.4256426 C84.7459381,13.1843101 86.8748514,13.8322402 89.1271799,14.4801704 C91.6571928,15.1898081 94.310621,16.1154226 94.310621,18.892266 L94.310621,18.9539736 C94.310621,21.7616709 91.9028367,23.5511922 88.8803494,23.5511922 C86.5971671,23.5511922 84.0968213,22.6255777 82.4319019,21.2680098" id="Fill-5" fill="#FEFEFE"></path>
                        <path d="M99.3399116,19.2005668 L99.3399116,8.89539239 L97.0567292,8.89539239 L97.0567292,7.50697069 L99.3399116,7.50697069 L99.3399116,2.97739321 L100.851749,2.47779873 L100.851749,7.50697069 L106.375768,7.50697069 L106.375768,8.89539239 L100.851749,8.89539239 L100.851749,19.0462977 C100.851749,21.2986263 102.178463,22.1008255 103.998838,22.1008255 C104.770183,22.1008255 105.418113,21.9465564 106.312874,21.5454568 L106.312874,22.9647323 C105.510675,23.3349781 104.739329,23.520101 103.752007,23.520101 C101.314556,23.520101 99.3399116,22.1933869 99.3399116,19.2005668" id="Fill-7" fill="#FEFEFE"></path>
                        <path d="M123.530134,15.43652 L123.530134,15.3748123 C123.530134,11.579793 120.690396,8.55611909 117.049646,8.55611909 C113.317521,8.55611909 110.632052,11.6106468 110.632052,15.3131047 L110.632052,15.3748123 C110.632052,19.1698317 113.470603,22.1935056 117.11254,22.1935056 C120.844665,22.1935056 123.530134,19.1389779 123.530134,15.43652 M108.9968,15.43652 L108.9968,15.3748123 C108.9968,10.9627167 112.42276,7.13565688 117.11254,7.13565688 C121.771466,7.13565688 125.165386,10.9010091 125.165386,15.3131047 L125.165386,15.3748123 C125.165386,19.786908 121.739426,23.6127811 117.049646,23.6127811 C112.39072,23.6127811 108.9968,19.8486156 108.9968,15.43652" id="Fill-9" fill="#FEFEFE"></path>
                        <path d="M129.514587,7.50697069 L131.026424,7.50697069 L131.026424,10.3146679 C132.0446,8.67941568 133.463876,7.1367249 136.271573,7.1367249 C139.018749,7.1367249 140.714522,8.7102695 141.579616,10.5306446 C142.596605,8.77197713 144.293565,7.1367249 147.255531,7.1367249 C150.99003,7.1367249 153.304066,9.75929923 153.304066,13.7085876 L153.304066,23.2424167 L151.791042,23.2424167 L151.791042,13.8937105 C151.791042,10.4997908 150.033561,8.5251466 147.133303,8.5251466 C144.478688,8.5251466 142.164652,10.5614984 142.164652,14.0788334 L142.164652,23.2424167 L140.654001,23.2424167 L140.654001,13.8011491 C140.654001,10.5306446 138.863293,8.5251466 136.056783,8.5251466 C133.247899,8.5251466 131.026424,10.9934519 131.026424,14.1713949 L131.026424,23.2424167 L129.514587,23.2424167 L129.514587,7.50697069 Z" id="Fill-11" fill="#FEFEFE"></path>
                        <path d="M170.520139,14.6339648 C170.302976,11.4560218 168.4826,8.52490926 164.872704,8.52490926 C161.756469,8.52490926 159.349871,11.1474836 159.073373,14.6339648 L170.520139,14.6339648 Z M157.467788,15.4053102 L157.467788,15.3436025 C157.467788,10.7772378 160.676585,7.13648756 164.935598,7.13648756 C169.347694,7.13648756 172.155391,10.7155302 172.155391,15.3744563 C172.155391,15.6521407 172.155391,15.7447021 172.124537,15.9915327 L159.073373,15.9915327 C159.349871,19.9099672 162.157568,22.1931496 165.244136,22.1931496 C167.680401,22.1931496 169.347694,21.1132661 170.643554,19.7248443 L171.691397,20.6504588 C170.088186,22.3782725 168.206103,23.6124251 165.181242,23.6124251 C161.048018,23.6124251 157.467788,20.3110668 157.467788,15.4053102 L157.467788,15.4053102 Z" id="Fill-13" fill="#FEFEFE"></path>
                        <path d="M176.257643,7.50697069 L177.76948,7.50697069 L177.76948,11.980774 C179.003633,9.17307673 181.626207,7.1367249 184.742443,7.26014016 L184.742443,8.92624621 L184.58936,8.92624621 C180.947423,8.92624621 177.76948,11.6722358 177.76948,16.7939692 L177.76948,23.2424167 L176.257643,23.2424167 L176.257643,7.50697069 Z" id="Fill-15" fill="#FEFEFE"></path>
                        <path d="M191.280604,6.92003618 L191.280604,2.50794054 L194.355305,1.55147225 L194.355305,6.92003618 L198.722307,6.92003618 L198.722307,9.3266338 L194.355305,9.3266338 L194.355305,18.5827785 C194.355305,19.8786388 195.066129,20.5574227 196.359616,20.5574227 C197.266244,20.5574227 198.042336,20.2797384 198.818428,19.5701006 L198.301033,22.2543826 C197.68633,22.9331665 196.359616,23.3959737 195.131397,23.3959737 C193.027404,23.3959737 191.280604,22.0384058 191.280604,19.2307086 L191.280604,9.3266338 L189.340373,9.3266338 L189.340373,6.92003618 L191.280604,6.92003618 Z" id="Fill-17" fill="#FEFEFE"></path>
                        <polygon id="Clip-20" points="0 26.2177002 292.953104 26.2177002 292.953104 0.440260216 0 0.440260216"></polygon>
                        <polygon id="Fill-19" fill="#FEFEFE" points="202.836544 23.2424167 205.910059 23.2424167 205.910059 6.92074819 202.836544 6.92074819"></polygon>
                        <path d="M213.473634,6.92003618 L213.473634,8.86382656 C214.671,7.32113578 216.384573,6.51893657 218.584688,6.51893657 C220.914151,6.51893657 222.725032,7.41369723 223.598433,9.48090288 C224.829025,7.53711249 226.703988,6.51893657 229.163986,6.51893657 C232.496198,6.51893657 234.793621,8.3393117 234.793621,12.9056764 L234.793621,23.2417047 L231.71892,23.2417047 L231.71892,13.2142146 C231.71892,10.3756635 230.328125,9.29577998 228.193278,9.29577998 C226.478518,9.29577998 225.119763,10.0054177 224.213136,12.1034772 L224.213136,23.2417047 L221.140808,23.2417047 L221.140808,13.2142146 C221.140808,10.3756635 219.750013,9.29577998 217.64602,9.29577998 C215.964487,9.29577998 214.508424,10.0054177 213.635024,12.0726234 L213.635024,23.2417047 L210.562696,23.2417047 L210.562696,6.92003618 L213.473634,6.92003618 Z" id="Fill-21" fill="#FEFEFE"></path>
                        <path d="M241.577544,13.8928798 L250.279507,13.8928798 C249.924688,10.7766445 248.241969,9.17224605 245.945733,9.17224605 C243.583042,9.17224605 241.900323,10.8692059 241.577544,13.8928798 L241.577544,13.8928798 Z M241.577544,16.0835008 C241.93355,19.4774205 243.971089,20.9892574 246.236471,20.9892574 C247.91919,20.9892574 249.212677,20.1562044 249.989956,19.0763209 L252.027494,20.7732807 C251.088826,22.0074334 249.180637,23.6426856 246.107122,23.6426856 C242.030858,23.6426856 238.698646,20.7424269 238.698646,15.0036172 C238.698646,9.54249184 241.70808,6.5188179 245.912506,6.5188179 C250.118118,6.5188179 253.159592,9.54249184 253.159592,15.0036172 C253.159592,15.4047168 253.126365,15.7441088 253.095511,16.0835008 L241.577544,16.0835008 Z" id="Fill-22" fill="#FEFEFE"></path>
                        <polygon id="Fill-23" fill="#FEFEFE" points="260.269498 0.440141547 260.269498 23.242298 257.194797 23.242298 257.194797 1.42746365"></polygon>
                        <polygon id="Fill-24" fill="#FEFEFE" points="264.919168 23.2424167 267.993869 23.2424167 267.993869 6.92074819 264.919168 6.92074819"></polygon>
                        <path d="M275.556021,6.92003618 L275.556021,8.92553419 C276.817467,7.3519896 278.628349,6.51893657 280.957812,6.51893657 C284.42056,6.51893657 286.814104,8.3393117 286.814104,12.9056764 L286.814104,23.2417047 L283.740589,23.2417047 L283.740589,13.2142146 C283.740589,10.3756635 282.252486,9.29577998 279.987104,9.29577998 C278.176222,9.29577998 276.656078,10.0054177 275.71741,12.1651848 L275.71741,23.2417047 L272.645082,23.2417047 L272.645082,6.92003618 L275.556021,6.92003618 Z" id="Fill-25" fill="#FEFEFE"></path>
                        <path d="M293.600282,13.8928798 L302.302244,13.8928798 C301.946239,10.7766445 300.264706,9.17224605 297.96847,9.17224605 C295.60578,9.17224605 293.924247,10.8692059 293.600282,13.8928798 L293.600282,13.8928798 Z M293.600282,16.0835008 C293.956287,19.4774205 295.995012,20.9892574 298.259208,20.9892574 C299.941927,20.9892574 301.235414,20.1562044 302.012693,19.0763209 L304.050232,20.7732807 C303.111564,22.0074334 301.203374,23.6426856 298.129859,23.6426856 C294.053595,23.6426856 290.721383,20.7424269 290.721383,15.0036172 C290.721383,9.54249184 293.730817,6.5188179 297.935243,6.5188179 C302.140855,6.5188179 305.182329,9.54249184 305.182329,15.0036172 C305.182329,15.4047168 305.149102,15.7441088 305.118248,16.0835008 L293.600282,16.0835008 Z" id="Fill-26" fill="#FEFEFE"></path>
                        <path d="M25.9149504,27.29376 L2.02341696,27.29376 C0.906746175,27.29376 0.000118668521,26.3871325 0.000118668521,25.2704617 L0.000118668521,25.2669016 C0.000118668521,24.1490442 0.906746175,23.2424167 2.02341696,23.2424167 L25.9149504,23.2424167 C27.0328079,23.2424167 27.9382487,24.1490442 27.9382487,25.2669016 L27.9382487,25.2704617 C27.9382487,26.3871325 27.0328079,27.29376 25.9149504,27.29376" id="Fill-27" fill="#04B6D9"></path>
                        <path d="M27.099381,12.3338128 L8.94191045,12.3338128 C7.82405298,12.3338128 6.91742547,11.4271853 6.91742547,10.3105145 L6.91742547,10.3069545 C6.91742547,9.18909698 7.82405298,8.28246947 8.94191045,8.28246947 L27.099381,8.28246947 C28.2172384,8.28246947 29.1226793,9.18909698 29.1226793,10.3069545 L29.1226793,10.3105145 C29.1226793,11.4271853 28.2172384,12.3338128 27.099381,12.3338128" id="Fill-28" fill="#C7306C"></path>
                        <path d="M34.4533879,4.85377988 L18.6645411,4.85377988 C17.5466836,4.85377988 16.6412428,3.94715237 16.6412428,2.83048158 L16.6412428,2.82692152 C16.6412428,1.70906405 17.5466836,0.802436544 18.6645411,0.802436544 L34.4533879,0.802436544 C35.5712454,0.802436544 36.4766862,1.70906405 36.4766862,2.82692152 L36.4766862,2.83048158 C36.4766862,3.94715237 35.5712454,4.85377988 34.4533879,4.85377988" id="Fill-29" fill="#03506E"></path>
                        <path d="M37.6089026,16.6961863 C37.2517103,15.3208182 36.1172393,14.2053341 34.738311,13.8600087 C34.1081812,13.7021795 33.5005984,13.7057396 32.9321761,13.8161013 C32.9309895,13.817288 32.9298028,13.817288 32.9274294,13.817288 C32.073016,13.9857973 31.3170976,14.4236841 30.7474887,15.0372004 L30.7439286,15.0372004 C30.2858681,15.4549136 29.6996456,15.7325979 29.0327285,15.755145 L13.9998002,15.755145 C12.8819427,15.755145 11.9741285,16.6617725 11.9741285,17.7808166 C11.9741285,18.8998608 12.8819427,19.8064883 13.9998002,19.8064883 L30.2087336,19.8064883 L30.2099203,19.807675 L29.0327285,19.807675 C29.6996456,19.830222 30.2858681,20.1079063 30.7439286,20.5256195 L30.7581688,20.5256195 C31.4939137,21.3206986 32.5287032,21.83216 33.6987748,21.83216 C36.2893086,21.83216 38.3114202,19.4006419 37.6089026,16.6961863" id="Fill-30" fill="#F1BA25"></path>
                    </g>
                    <path d="M76.5008492,15.3142914 L61.4679209,15.3142914 C60.3488767,15.3142914 59.4422492,16.2221056 59.4422492,17.3411498 L59.4422492,17.3411498 C59.4422492,18.4601939 60.3488767,19.3668214 61.4679209,19.3668214 L61.4679209,19.3668214 L76.5305164,19.3668214 C77.0645247,19.3905551 77.5415722,19.5827981 77.9462318,19.873536 L77.9462318,19.873536 C77.8192565,19.7133335 77.7077081,19.5436375 77.6056532,19.364448 L77.6056532,19.364448 L77.6020931,19.364448 C77.2686346,18.7734788 77.063338,18.1006283 77.063338,17.3743769 L77.063338,17.3743769 C77.063338,16.3395874 77.4608776,15.4068528 78.0945675,14.6877216 L78.0945675,14.6877216 C77.6554939,15.0508473 77.1131788,15.2941178 76.5008492,15.3142914" id="Fill-32"></path>
                </g>
            </g>
        </g>
    </g>
</svg>